<svg width="93" height="93" viewBox="0 0 93 93" fill="none" xmlns="http://www.w3.org/2000/svg">
<path d="M0.108239 69.6977C10.2388 66.9832 18.2048 58.9968 23.248 46.6689L23.248 69.6977L0.108239 69.6977Z" fill="black"/>
<path d="M46.3879 69.6977C36.2573 66.9832 28.2913 58.9968 23.248 46.6689L23.248 69.6977L46.3879 69.6977Z" fill="black"/>
<path d="M0.108237 69.6959C10.2388 72.4103 18.2048 80.3968 23.248 92.7246L23.248 69.6959L0.108237 69.6959Z" fill="black"/>
<path d="M46.3879 69.6959C36.2573 72.4103 28.2913 80.3968 23.248 92.7246L23.248 69.6959L46.3879 69.6959Z" fill="black"/>
<path d="M46.057 -5.05794e-05C51.4862 20.2618 67.4597 36.1945 92.1162 46.2812L46.057 46.2813L46.057 -5.05794e-05Z" fill="black"/>
<path d="M46.057 92.5626C51.4862 72.3007 67.4597 56.368 92.1162 46.2812L46.057 46.2812L46.057 92.5626Z" fill="black"/>
<path d="M46.0592 -5.05794e-05C40.6301 20.2618 24.6565 36.1945 0 46.2812L46.0592 46.2813L46.0592 -5.05794e-05Z" fill="black"/>
</svg>
