<svg width="793" height="93" viewBox="0 0 793 93" fill="none" xmlns="http://www.w3.org/2000/svg">
<path d="M111.067 80.9775V79.9149L118.409 75.3743V16.9271L111.067 12.3866V11.3239H141.112C146.135 11.3239 150.74 12.1934 154.927 13.9323C159.177 15.6068 162.848 18.022 165.94 21.1779C169.096 24.2693 171.543 27.9403 173.282 32.191C175.021 36.4417 175.89 41.0789 175.89 46.1024C175.89 51.1904 175.021 55.8597 173.282 60.1104C171.543 64.3611 169.096 68.0644 165.94 71.2202C162.848 74.3117 159.177 76.7268 154.927 78.4658C150.74 80.1403 146.135 80.9775 141.112 80.9775H111.067ZM129.036 76.7268H139.952C143.688 76.7268 147.037 75.954 150 74.4083C153.027 72.8626 155.635 70.705 157.825 67.9356C160.079 65.1662 161.786 61.9138 162.945 58.1783C164.169 54.4428 164.78 50.4175 164.78 46.1024C164.78 41.7873 164.169 37.7942 162.945 34.1232C161.786 30.4521 160.079 27.2319 157.825 24.4625C155.635 21.6287 153.027 19.4389 150 17.8932C147.037 16.3475 143.688 15.5746 139.952 15.5746H129.036V76.7268ZM177.198 80.9775V79.9149L182.995 76.2438V38.1807L177.198 35.1859V34.1232L192.848 29.9691V76.1472L200.674 79.9149V80.9775H177.198ZM192.655 51.126L192.269 46.2957C192.913 42.9466 193.847 40.0484 195.07 37.601C196.294 35.0892 197.872 33.1893 199.804 31.9012C201.736 30.5487 203.99 29.8725 206.567 29.8725C207.211 29.8725 207.855 29.9047 208.499 29.9691C209.143 30.0335 209.722 30.1623 210.238 30.3555L208.982 40.2094C206.534 39.2433 204.345 38.9535 202.413 39.34C200.545 39.662 198.935 40.4348 197.582 41.6585C196.23 42.8822 195.135 44.3635 194.298 46.1024C193.525 47.777 192.977 49.4515 192.655 51.126ZM218.216 53.831C218.216 58.2749 218.989 62.0748 220.535 65.2306C222.08 68.322 224.141 70.705 226.718 72.3795C229.358 73.9896 232.224 74.7947 235.316 74.7947C237.763 74.7947 240.017 74.3117 242.078 73.3456C244.139 72.3151 245.942 70.866 247.488 68.9983C249.034 67.1305 250.257 64.9086 251.159 62.3324L253.671 63.0087C253.027 66.7441 251.707 70.061 249.71 72.9592C247.778 75.793 245.33 78.0149 242.368 79.625C239.405 81.1708 236.024 81.9436 232.224 81.9436C228.424 81.9436 225.011 81.2674 221.984 79.9149C218.957 78.498 216.381 76.5658 214.255 74.1184C212.13 71.6711 210.52 68.8695 209.425 65.7136C208.33 62.5578 207.783 59.2732 207.783 55.8597C207.783 52.4463 208.298 49.1939 209.328 46.1024C210.359 42.9466 211.84 40.145 213.772 37.6976C215.769 35.2503 218.216 33.3503 221.114 31.9978C224.013 30.5809 227.362 29.8725 231.161 29.8725C234.124 29.8725 236.765 30.2589 239.083 31.0318C241.402 31.7402 243.463 32.8029 245.266 34.2198C247.069 35.5723 248.551 37.2146 249.71 39.1467C250.869 41.0789 251.739 43.2364 252.318 45.6194C252.898 48.0024 253.156 50.5464 253.091 53.2514H213.676V50.1599H242.754C242.625 47.9058 242.271 45.7804 241.692 43.7839C241.176 41.7229 240.436 39.8874 239.47 38.2773C238.504 36.6672 237.312 35.4113 235.895 34.5096C234.543 33.5435 232.965 33.0605 231.161 33.0605C229.1 33.0605 227.233 33.6401 225.558 34.7994C223.948 35.9587 222.596 37.5366 221.501 39.5332C220.47 41.5297 219.665 43.7517 219.086 46.199C218.506 48.6464 218.216 51.1904 218.216 53.831ZM269.831 81.9436C266.739 81.9436 264.066 81.4284 261.812 80.3979C259.622 79.303 257.916 77.7895 256.692 75.8574C255.533 73.9252 254.953 71.7033 254.953 69.1915C254.953 66.4221 255.597 64.0391 256.885 62.0426C258.238 59.9816 260.234 58.2427 262.875 56.8258C265.516 55.4089 268.768 54.2496 272.632 53.348L286.157 50.1599V44.5567C286.157 42.1094 285.739 40.0484 284.901 38.3739C284.064 36.635 282.905 35.3147 281.423 34.413C279.942 33.5113 278.235 33.0605 276.303 33.0605C274.371 33.0605 272.568 33.5757 270.893 34.6062C269.219 35.6367 267.898 37.2146 266.932 39.34C266.031 41.4653 265.741 44.2025 266.063 47.5515L255.919 45.6194C256.112 42.5924 257.079 39.8874 258.817 37.5044C260.621 35.1214 263.036 33.2537 266.063 31.9012C269.09 30.5487 272.568 29.8725 276.497 29.8725C280.618 29.8725 284.128 30.5809 287.027 31.9978C289.925 33.3503 292.147 35.3791 293.693 38.0841C295.303 40.7247 296.108 43.9771 296.108 47.8414V76.0506L301.808 79.9149V80.9775H286.157V53.2514L277.269 55.3767C273.147 56.536 270.12 58.1139 268.188 60.1104C266.256 62.107 265.29 64.651 265.29 67.7424C265.29 69.3525 265.644 70.8016 266.353 72.0897C267.061 73.3778 268.059 74.3761 269.348 75.0845C270.636 75.793 272.149 76.1472 273.888 76.1472C276.078 76.1472 278.01 75.6964 279.685 74.7947C281.359 73.893 282.744 72.6049 283.839 70.9304C284.998 69.2559 285.835 67.3238 286.35 65.134L286.833 69.3847C286.254 71.0592 285.449 72.6693 284.418 74.2151C283.452 75.6964 282.261 77.0167 280.844 78.1759C279.491 79.3352 277.881 80.2691 276.013 80.9775C274.21 81.6216 272.149 81.9436 269.831 81.9436ZM301.275 80.9775V79.9149L306.781 76.1472V38.1807L301.081 35.1859V34.1232L316.732 29.9691V42.0449C317.569 39.5976 318.696 37.4722 320.113 35.6689C321.594 33.8656 323.333 32.4487 325.33 31.4182C327.326 30.3877 329.452 29.8725 331.706 29.8725C335.441 29.8725 338.597 30.9351 341.173 33.0605C343.75 35.1214 345.392 38.1163 346.1 42.0449C347.131 39.4044 348.419 37.1824 349.965 35.3791C351.575 33.5757 353.378 32.2232 355.375 31.3216C357.371 30.3555 359.432 29.8725 361.557 29.8725C364.52 29.8725 367.128 30.5487 369.383 31.9012C371.701 33.1893 373.472 35.0892 374.696 37.601C375.984 40.1128 376.628 43.1398 376.628 46.6821V76.1472L382.135 79.9149V80.9775H361.461V79.9149L366.678 76.1472V47.0685C366.678 44.4923 366.291 42.4636 365.518 40.9823C364.81 39.4366 363.779 38.3095 362.427 37.601C361.139 36.8926 359.69 36.5384 358.08 36.5384C356.212 36.5384 354.473 37.0214 352.863 37.9875C351.253 38.9535 349.9 40.4026 348.805 42.3348C347.71 44.2669 346.97 46.6177 346.583 49.3871V76.1472L351.897 79.9149V80.9775H331.513V79.9149L336.729 76.1472V47.0685C336.729 44.4923 336.343 42.4636 335.57 40.9823C334.862 39.4366 333.863 38.3095 332.575 37.601C331.287 36.8926 329.838 36.5384 328.228 36.5384C326.425 36.5384 324.686 37.0536 323.011 38.0841C321.401 39.0501 320.016 40.4992 318.857 42.4314C317.762 44.2991 317.054 46.6177 316.732 49.3871V76.1472L321.949 79.9149V80.9775H301.275ZM398.174 80.9775V79.9149L405.227 75.7608L405.71 16.9271L398.271 12.3866V11.3239H415.854L436.334 56.9224C437.493 59.3698 438.427 61.5595 439.136 63.4917C439.844 65.4238 440.392 66.9695 440.778 68.1288C441.229 69.2881 441.454 69.8677 441.454 69.8677C441.454 69.8677 441.615 69.2881 441.937 68.1288C442.324 66.9695 442.871 65.4238 443.58 63.4917C444.288 61.4951 445.158 59.2732 446.188 56.8258L465.22 11.3239H483.575V12.3866L476.136 16.9271V75.3743L483.575 79.9149V80.9775H458.167V79.9149L465.509 75.3743V36.0553C465.509 33.3503 465.542 30.9351 465.606 28.8098C465.67 26.6844 465.735 25.0099 465.799 23.7862C465.864 22.5626 465.896 21.9507 465.896 21.9507C465.896 21.9507 465.67 22.5303 465.22 23.6896C464.769 24.8489 464.157 26.4268 463.384 28.4234C462.611 30.3555 461.677 32.5453 460.583 34.9926L440.295 80.9775H435.561L415.177 35.3791C414.082 32.9317 413.116 30.7419 412.279 28.8098C411.442 26.8777 410.798 25.3319 410.347 24.1727C409.896 23.0134 409.671 22.4337 409.671 22.4337C409.671 22.4337 409.703 23.0456 409.767 24.2693C409.896 25.493 409.993 27.1675 410.057 29.2928C410.186 31.4182 410.25 33.8334 410.25 36.5384L410.54 75.6642L417.496 79.9149V80.9775H398.174ZM498.91 81.9436C495.818 81.9436 493.146 81.4284 490.891 80.3979C488.702 79.303 486.995 77.7895 485.771 75.8574C484.612 73.9252 484.032 71.7033 484.032 69.1915C484.032 66.4221 484.676 64.0391 485.964 62.0426C487.317 59.9816 489.314 58.2427 491.954 56.8258C494.595 55.4089 497.847 54.2496 501.711 53.348L515.236 50.1599V44.5567C515.236 42.1094 514.818 40.0484 513.98 38.3739C513.143 36.635 511.984 35.3147 510.503 34.413C509.021 33.5113 507.315 33.0605 505.382 33.0605C503.45 33.0605 501.647 33.5757 499.972 34.6062C498.298 35.6367 496.978 37.2146 496.012 39.34C495.11 41.4653 494.82 44.2025 495.142 47.5515L484.998 45.6194C485.192 42.5924 486.158 39.8874 487.897 37.5044C489.7 35.1214 492.115 33.2537 495.142 31.9012C498.169 30.5487 501.647 29.8725 505.576 29.8725C509.698 29.8725 513.208 30.5809 516.106 31.9978C519.004 33.3503 521.226 35.3791 522.772 38.0841C524.382 40.7247 525.187 43.9771 525.187 47.8414V76.0506L530.887 79.9149V80.9775H515.236V53.2514L506.349 55.3767C502.227 56.536 499.2 58.1139 497.267 60.1104C495.335 62.107 494.369 64.651 494.369 67.7424C494.369 69.3525 494.724 70.8016 495.432 72.0897C496.14 73.3778 497.139 74.3761 498.427 75.0845C499.715 75.793 501.228 76.1472 502.967 76.1472C505.157 76.1472 507.089 75.6964 508.764 74.7947C510.438 73.893 511.823 72.6049 512.918 70.9304C514.077 69.2559 514.914 67.3238 515.43 65.134L515.913 69.3847C515.333 71.0592 514.528 72.6693 513.497 74.2151C512.531 75.6964 511.34 77.0167 509.923 78.1759C508.57 79.3352 506.96 80.2691 505.093 80.9775C503.289 81.6216 501.228 81.9436 498.91 81.9436ZM554.8 81.9436C550.098 81.9436 545.912 80.8165 542.241 78.5624C538.634 76.3082 535.768 73.2168 533.643 69.2881C531.582 65.3594 530.552 60.8833 530.552 55.8597C530.552 51.9955 531.196 48.4854 532.484 45.3296C533.836 42.1094 535.672 39.34 537.99 37.0214C540.309 34.7028 543.014 32.9317 546.105 31.708C549.197 30.4843 552.514 29.8725 556.056 29.8725C559.018 29.8725 561.723 30.2911 564.171 31.1284C566.683 31.9656 568.84 33.0605 570.643 34.413C572.511 35.7655 573.96 37.2468 574.991 38.8569L570.547 47.0685L569.484 46.9719C569.033 44.8465 568.389 42.9466 567.552 41.2721C566.715 39.5332 565.716 38.0841 564.557 36.9248C563.462 35.7011 562.206 34.7994 560.79 34.2198C559.373 33.5757 557.795 33.2537 556.056 33.2537C553.866 33.2537 551.837 33.7368 549.97 34.7028C548.166 35.6689 546.588 37.0858 545.236 38.9535C543.883 40.7569 542.853 42.9144 542.144 45.4262C541.436 47.938 541.082 50.7718 541.082 53.9276C541.082 57.6631 541.597 60.8511 542.627 63.4917C543.722 66.1323 545.107 68.2898 546.782 69.9643C548.52 71.6389 550.388 72.8626 552.385 73.6354C554.381 74.4083 556.281 74.7947 558.085 74.7947C561.434 74.7947 564.493 73.7964 567.262 71.7999C570.032 69.7389 572.254 66.4865 573.928 62.0426L576.343 62.5256C575.699 66.3899 574.411 69.8033 572.479 72.766C570.547 75.6642 568.099 77.9183 565.137 79.5284C562.239 81.1386 558.793 81.9436 554.8 81.9436ZM576.006 80.9775V79.9149L581.706 76.2438V17.7L576.006 14.7052V13.6425L591.656 9.48841V42.0449C592.493 39.5332 593.685 37.3756 595.231 35.5723C596.776 33.769 598.58 32.3843 600.641 31.4182C602.702 30.3877 604.924 29.8725 607.307 29.8725C610.462 29.8725 613.2 30.5487 615.518 31.9012C617.901 33.1893 619.769 35.0892 621.121 37.601C622.538 40.1128 623.247 43.172 623.247 46.7787V76.2438L628.946 79.9149V80.9775H607.5V79.9149L613.296 76.2438V47.0685C613.296 44.6211 612.878 42.6246 612.04 41.0789C611.267 39.5332 610.173 38.4061 608.756 37.6976C607.403 36.9248 605.825 36.5384 604.022 36.5384C602.09 36.5384 600.254 37.0214 598.515 37.9875C596.841 38.9535 595.392 40.3704 594.168 42.2382C592.944 44.0415 592.107 46.2957 591.656 49.0006V76.2438L597.356 79.9149V80.9775H576.006ZM644.312 76.2438L650.109 79.9149V80.9775H628.662V79.9149L634.458 76.2438V38.1807L628.662 35.1859V34.1232L644.312 29.9691V76.2438ZM639.096 23.6896C637.357 23.6896 635.843 23.0778 634.555 21.8541C633.267 20.566 632.623 19.0203 632.623 17.217C632.623 15.478 633.267 13.9967 634.555 12.773C635.843 11.5494 637.357 10.9375 639.096 10.9375C640.963 10.9375 642.541 11.5816 643.829 12.8697C645.117 14.0933 645.761 15.5746 645.761 17.3136C645.761 19.0525 645.117 20.566 643.829 21.8541C642.541 23.0778 640.963 23.6896 639.096 23.6896ZM650.27 80.9775V79.9149L656.067 76.2438V38.1807L650.27 35.1859V34.1232L665.92 29.9691V42.0449C666.822 39.5332 668.046 37.3756 669.592 35.5723C671.137 33.769 672.941 32.3843 675.002 31.4182C677.062 30.3877 679.284 29.8725 681.667 29.8725C684.759 29.8725 687.496 30.5487 689.879 31.9012C692.262 33.1893 694.13 35.0892 695.482 37.601C696.835 40.1128 697.511 43.172 697.511 46.7787V76.2438L703.307 79.9149V80.9775H681.861V79.9149L687.657 76.2438V47.0685C687.657 44.6211 687.238 42.6246 686.401 41.0789C685.628 39.5332 684.533 38.4061 683.117 37.6976C681.764 36.9248 680.154 36.5384 678.286 36.5384C676.418 36.5384 674.615 37.0214 672.876 37.9875C671.202 38.9535 669.753 40.3704 668.529 42.2382C667.305 44.0415 666.436 46.2957 665.92 49.0006V76.2438L671.717 79.9149V80.9775H650.27ZM713.836 53.831C713.836 58.2749 714.609 62.0748 716.155 65.2306C717.7 68.322 719.761 70.705 722.337 72.3795C724.978 73.9896 727.844 74.7947 730.935 74.7947C733.383 74.7947 735.637 74.3117 737.698 73.3456C739.759 72.3151 741.562 70.866 743.108 68.9983C744.654 67.1305 745.877 64.9086 746.779 62.3324L749.291 63.0087C748.647 66.7441 747.326 70.061 745.33 72.9592C743.398 75.793 740.95 78.0149 737.988 79.625C735.025 81.1708 731.644 81.9436 727.844 81.9436C724.044 81.9436 720.631 81.2674 717.604 79.9149C714.577 78.498 712.001 76.5658 709.875 74.1184C707.75 71.6711 706.14 68.8695 705.045 65.7136C703.95 62.5578 703.402 59.2732 703.402 55.8597C703.402 52.4463 703.918 49.1939 704.948 46.1024C705.979 42.9466 707.46 40.145 709.392 37.6976C711.389 35.2503 713.836 33.3503 716.734 31.9978C719.632 30.5809 722.981 29.8725 726.781 29.8725C729.744 29.8725 732.385 30.2589 734.703 31.0318C737.022 31.7402 739.083 32.8029 740.886 34.2198C742.689 35.5723 744.171 37.2146 745.33 39.1467C746.489 41.0789 747.359 43.2364 747.938 45.6194C748.518 48.0024 748.776 50.5464 748.711 53.2514H709.296V50.1599H738.374C738.245 47.9058 737.891 45.7804 737.312 43.7839C736.796 41.7229 736.056 39.8874 735.09 38.2773C734.123 36.6672 732.932 35.4113 731.515 34.5096C730.163 33.5435 728.585 33.0605 726.781 33.0605C724.72 33.0605 722.853 33.6401 721.178 34.7994C719.568 35.9587 718.216 37.5366 717.121 39.5332C716.09 41.5297 715.285 43.7517 714.706 46.199C714.126 48.6464 713.836 51.1904 713.836 53.831ZM770.281 81.9436C766.674 81.9436 763.486 81.4928 760.717 80.5911C757.947 79.625 755.661 78.4336 753.858 77.0167C752.054 75.5353 750.766 74.0218 749.993 72.4761L754.727 64.0713L755.79 64.1679C756.37 67.0661 757.368 69.6101 758.785 71.7999C760.202 73.9252 761.876 75.5998 763.808 76.8234C765.805 78.0471 767.962 78.659 770.281 78.659C772.213 78.659 773.888 78.2725 775.304 77.4997C776.786 76.7268 777.945 75.6642 778.782 74.3117C779.62 72.8948 780.038 71.3168 780.038 69.5779C780.038 67.2594 779.362 65.3272 778.009 63.7815C776.721 62.1714 774.693 60.9155 771.923 60.0138L764.195 57.5987C762.649 57.0834 761.135 56.4716 759.654 55.7631C758.173 55.0547 756.82 54.1852 755.597 53.1547C754.437 52.0599 753.504 50.7396 752.795 49.1939C752.151 47.6481 751.829 45.8448 751.829 43.7839C751.829 41.0145 752.57 38.5993 754.051 36.5384C755.597 34.413 757.69 32.7707 760.33 31.6114C763.035 30.4521 766.062 29.8725 769.411 29.8725C771.859 29.8725 774.177 30.2267 776.367 30.9352C778.621 31.5792 780.65 32.4487 782.453 33.5435C784.257 34.6384 785.706 35.9587 786.801 37.5044L783.033 45.1364L781.97 45.0398C781.455 42.5924 780.553 40.4992 779.265 38.7603C778.042 36.957 776.593 35.5723 774.918 34.6062C773.244 33.6401 771.376 33.1571 769.315 33.1571C767.64 33.1571 766.127 33.4791 764.774 34.1232C763.422 34.7028 762.359 35.5723 761.586 36.7316C760.813 37.8908 760.427 39.2433 760.427 40.7891C760.427 42.7212 761.039 44.2991 762.263 45.5228C763.486 46.7465 765.418 47.777 768.059 48.6142L775.884 50.9328C778.396 51.7056 780.65 52.7361 782.647 54.0242C784.708 55.2479 786.35 56.858 787.574 58.8546C788.797 60.8511 789.409 63.3629 789.409 66.3899C789.409 69.2881 788.572 71.9287 786.897 74.3117C785.287 76.6302 783.033 78.498 780.135 79.9149C777.301 81.2674 774.016 81.9436 770.281 81.9436Z" fill="black"/>
<path d="M0.117919 69.6953C10.2438 66.9783 18.2062 58.9928 23.2478 46.6689C28.2892 58.9923 36.2513 66.978 46.3767 69.6953L46.3875 69.6953C46.3855 69.6958 46.3836 69.6967 46.3816 69.6973C46.3835 69.6978 46.3855 69.6977 46.3875 69.6982L46.3767 69.6982C36.2513 72.4155 28.2892 80.4012 23.2478 92.7246C18.2062 80.4007 10.2438 72.4152 0.117919 69.6982L0.108153 69.6982C0.109718 69.6978 0.111472 69.6977 0.113036 69.6973C0.111385 69.6968 0.109804 69.6958 0.108153 69.6953L0.117919 69.6953Z" fill="black"/>
<path d="M46.0596 0.00976562C51.4912 20.267 67.4636 36.1961 92.1162 46.2812C67.4597 56.368 51.4858 72.3006 46.0566 92.5625L46.0566 46.2812H0C24.6526 36.1961 40.625 20.267 46.0566 0.00976562V0C46.0571 0.00157756 46.0572 0.00330531 46.0576 0.00488281C46.0581 0.00322327 46.0591 0.0016596 46.0596 0V0.00976562Z" fill="black"/>
</svg>
